<svg width="380" height="43" viewBox="0 0 380 43" fill="none" xmlns="http://www.w3.org/2000/svg">
<path d="M246 0C248.761 0 251 2.23858 251 5V38C251 40.7614 248.761 43 246 43H134C131.239 43 129 40.7614 129 38V5C129 2.23858 131.239 0 134 0H246ZM137 11C136.448 11 136 11.4477 136 12V19C136 19.5523 136.448 20 137 20H155C155.552 20 156 19.5523 156 19V12C156 11.4477 155.552 11 155 11H137ZM159 11C158.448 11 158 11.4477 158 12V19C158 19.5523 158.448 20 159 20H177C177.552 20 178 19.5523 178 19V12C178 11.4477 177.552 11 177 11H159ZM181 11C180.448 11 180 11.4477 180 12V19C180 19.5523 180.448 20 181 20H199C199.552 20 200 19.5523 200 19V12C200 11.4477 199.552 11 199 11H181ZM203 11C202.448 11 202 11.4477 202 12V19C202 19.5523 202.448 20 203 20H221C221.552 20 222 19.5523 222 19V12C222 11.4477 221.552 11 221 11H203ZM225 11C224.448 11 224 11.4477 224 12V19C224 19.5523 224.448 20 225 20H243C243.552 20 244 19.5523 244 19V12C244 11.4477 243.552 11 243 11H225Z" fill="#878787"/>
<path d="M360 0C371.046 0 380 8.95431 380 20V38C380 40.7614 377.761 43 375 43H258C255.239 43 253 40.7614 253 38V5C253 2.23858 255.239 0 258 0H360ZM261 11C260.448 11 260 11.4477 260 12V19C260 19.5523 260.448 20 261 20H279C279.552 20 280 19.5523 280 19V12C280 11.4477 279.552 11 279 11H261ZM283 11C282.448 11 282 11.4477 282 12V19C282 19.5523 282.448 20 283 20H301C301.552 20 302 19.5523 302 19V12C302 11.4477 301.552 11 301 11H283ZM305 11C304.448 11 304 11.4477 304 12V19C304 19.5523 304.448 20 305 20H323C323.552 20 324 19.5523 324 19V12C324 11.4477 323.552 11 323 11H305ZM327 11C326.448 11 326 11.4477 326 12V19C326 19.5523 326.448 20 327 20H345C345.552 20 346 19.5523 346 19V12C346 11.4477 345.552 11 345 11H327ZM354 11C353.448 11 353 11.4477 353 12V19C353 19.5523 353.448 20 354 20H372C372.552 20 373 19.5523 373 19V16C373 13.2386 370.761 11 368 11H354Z" fill="#878787"/>
<path d="M20 0C8.95431 0 3.06042e-07 8.95431 0 20V38C0 40.7614 2.23858 43 5 43H122C124.761 43 127 40.7614 127 38V5C127 2.23858 124.761 0 122 0H20ZM119 11C119.552 11 120 11.4477 120 12V19C120 19.5523 119.552 20 119 20H101C100.448 20 100 19.5523 100 19V12C100 11.4477 100.448 11 101 11H119ZM97 11C97.5523 11 98 11.4477 98 12V19C98 19.5523 97.5523 20 97 20H79C78.4477 20 78 19.5523 78 19V12C78 11.4477 78.4477 11 79 11H97ZM75 11C75.5523 11 76 11.4477 76 12V19C76 19.5523 75.5523 20 75 20H57C56.4477 20 56 19.5523 56 19V12C56 11.4477 56.4477 11 57 11H75ZM53 11C53.5523 11 54 11.4477 54 12V19C54 19.5523 53.5523 20 53 20H35C34.4477 20 34 19.5523 34 19V12C34 11.4477 34.4477 11 35 11H53ZM26 11C26.5523 11 27 11.4477 27 12V19C27 19.5523 26.5523 20 26 20H8C7.44772 20 7 19.5523 7 19V16C7 13.2386 9.23858 11 12 11H26Z" fill="#878787"/>
</svg>
